# xmcd
#
# Track frame offsets:
#	150
#	12543
#	51523
#	62005
#	75320
#	87545
#	104165
#	121398
#	135160
#	154053
#	168308
#	182275
#	192110
#	202223
#	217278
#	230925
#	243050
#
# Disc length: 3369 seconds
#
# Revision: 1
# Processed by: cddbd v1.5.2PL0 Copyright (c) Steve Scherf et al.
# Submitted via: EasyCDDAExtractor 16.0.6.1
#
DISCID=f20d2711
DTITLE=Varios - C-019 Country Stars Of The 80's live
DYEAR=1900
DGENRE=Country
TTITLE0=Hobo Heaven
TTITLE1=Hank Williams Medley
TTITLE2=White Freight Liner Blues
TTITLE3=1960's Hits Medley
TTITLE4=Tequila Sheila
TTITLE5=Marie Laveau
TTITLE6=Whiskey River
TTITLE7=Mexican Rose
TTITLE8=Secret Love
TTITLE9=Jambalaya
TTITLE10=The Rains Came
TTITLE11=Before The Next Teardrop Falls
TTITLE12=Wasted Days And Wasted Nights
TTITLE13=How Cold I Lover Her So Much
TTITLE14=Desperado
TTITLE15=Love Me With All Your Heart
TTITLE16=We're Over
EXTD=
EXTT0=
EXTT1=
EXTT2=
EXTT3=
EXTT4=
EXTT5=
EXTT6=
EXTT7=
EXTT8=
EXTT9=
EXTT10=
EXTT11=
EXTT12=
EXTT13=
EXTT14=
EXTT15=
EXTT16=
PLAYORDER=
